<?xml version="1.0" encoding="utf-8"?>
<svg class="github-logo" height="100" width="100" xmlns="http://www.w3.org/2000/svg" xmlns:xlink="http://www.w3.org/1999/xlink" version="1.1">
  <defs>
<symbol viewBox="0 0 1024 998" aria-labelledby="dpsi-ant-github-title" id="si-ant-github"><title id="dpsi-ant-github-title">icon github</title><path d="M0 512q0 166 95.5 298.5T343 996q6 1 10 1t6.5-1.5 4-3 2-5 .5-4.5V882q-37 4-66-.5t-45.5-14-29-23.5-17-25.5-9-24T194 780q-9-15-27-27.5t-27-20-2-14.5q50-26 113 66 34 51 119 30 10-41 40-70-116-21-172-86t-56-158q0-87 55-151-22-65 6-137 29-2 65 11.5t50.5 23T384 264q57-16 128.5-16T642 264q13-9 29-19t49-21.5 61-9.5q27 71 6 135 56 64 56 152 0 92-56.5 157.5T615 744q43 43 43 104v129q0 1 1 3 0 6 .5 9t4.5 6 11 3q154-52 251.5-185.5T1024 512q0-104-40.5-199t-109-163.5T711 40.5 512 0 313 40.5t-163.5 109T40.5 313 0 512z"/></symbol>
<symbol viewBox="0 0 514.3589477539062 491.5210266113281" aria-labelledby="cdsi-zocial-linkedin-title" id="si-zocial-linkedin"><title id="cdsi-zocial-linkedin-title">icon linkedin</title><path d="M0 57.096c0-16.55 5.793-30.203 17.377-40.96C28.962 5.379 44.022 0 62.557 0c18.204 0 32.934 5.296 44.187 15.888 11.585 10.922 17.377 25.155 17.377 42.698 0 15.888-5.626 29.127-16.88 39.719-11.585 10.922-26.81 16.384-45.676 16.384h-.497c-18.205 0-32.934-5.461-44.187-16.384C5.627 87.382.001 73.645.001 57.096zm6.454 434.425V159.869h110.22v331.652H6.454zm171.288 0c.662-99.959.993-177.576.993-232.852s-.331-88.209-.993-98.8h110.22v47.165l-.496.993h.496v-.993c23.831-36.74 57.096-55.11 99.794-55.11 38.063 0 68.68 12.661 91.85 37.982 23.168 25.32 34.753 62.474 34.753 111.46V491.52h-110.22V314.275c0-49.98-18.535-74.97-55.606-74.97-14.233 0-26.065 3.89-35.498 11.668-9.434 7.778-16.468 17.294-21.102 28.548-2.648 6.289-3.972 15.226-3.972 26.81V491.52h-110.22z"/></symbol>
<symbol viewBox="0 0 640.0180053710938 520.3389892578125" aria-labelledby="dnsi-zocial-twitter-title" id="si-zocial-twitter"><title id="dnsi-zocial-twitter-title">icon twitter</title><path d="M0 461.54c10.42 1.014 20.826 1.548 31.22 1.548 61.048 0 115.528-18.732 163.387-56.17-28.424-.352-53.933-9.041-76.477-26.043-22.57-16.99-37.984-38.675-46.323-65.056 6.933 1.418 15.102 2.095 24.456 2.095 12.15 0 23.766-1.575 34.862-4.684-30.517-5.866-55.766-20.891-75.709-44.996-19.955-24.13-29.919-51.969-29.919-83.527v-1.574c18.395 10.42 38.31 15.805 59.826 16.13-18.016-11.798-32.338-27.304-42.915-46.57-10.575-19.24-15.87-40.13-15.87-62.675 0-23.597 6.088-45.607 18.212-66.095 32.6 40.586 72.418 72.938 119.431 97.055 47 24.092 97.368 37.53 151.158 40.327-2.432-11.448-3.655-21.516-3.655-30.18 0-36.085 12.84-66.954 38.505-92.62C375.868 12.839 406.893 0 443.342 0c37.79 0 69.7 13.88 95.73 41.64 30.167-6.257 57.926-17.015 83.255-32.261-9.718 31.558-28.815 55.845-57.238 72.847 25.327-3.109 50.304-10.055 74.929-20.813-16.651 26.017-38.336 48.742-65.056 68.151v17.198c0 34.992-5.125 70.128-15.35 105.355-10.211 35.214-25.848 68.853-46.83 100.972-20.996 32.065-46.05 60.619-75.189 85.569-29.126 24.977-64.08 44.853-104.849 59.592-40.755 14.752-84.555 22.089-131.398 22.089-72.483-.014-139.606-19.605-201.345-58.8z"/></symbol>
  </defs>
</svg>
